<svg xmlns="http://www.w3.org/2000/svg" viewBox="0 0 1200 600">
  <defs>
    <linearGradient id="asfalto" x1="0%" y1="0%" x2="0%" y2="100%">
      <stop offset="0%" style="stop-color:#888888;stop-opacity:1" />
      <stop offset="100%" style="stop-color:#666666;stop-opacity:1" />
    </linearGradient>
  </defs>
  
  <!-- Sfondo asfalto -->
  <rect width="1200" height="600" fill="url(#asfalto)"/>
  
  <!-- Linee di parcheggio bianche -->
  <line x1="100" y1="0" x2="100" y2="600" stroke="white" stroke-width="4" opacity="0.8"/>
  <line x1="250" y1="0" x2="250" y2="600" stroke="white" stroke-width="4" opacity="0.8"/>
  <line x1="400" y1="0" x2="400" y2="600" stroke="white" stroke-width="4" opacity="0.8"/>
  <line x1="550" y1="0" x2="550" y2="600" stroke="white" stroke-width="4" opacity="0.8"/>
  <line x1="700" y1="0" x2="700" y2="600" stroke="white" stroke-width="4" opacity="0.8"/>
  <line x1="850" y1="0" x2="850" y2="600" stroke="white" stroke-width="4" opacity="0.8"/>
  <line x1="1000" y1="0" x2="1000" y2="600" stroke="white" stroke-width="4" opacity="0.8"/>
  
  <line x1="0" y1="200" x2="1200" y2="200" stroke="white" stroke-width="3" opacity="0.6"/>
  <line x1="0" y1="400" x2="1200" y2="400" stroke="white" stroke-width="3" opacity="0.6"/>
  
  <!-- Auto rosse (prima fila) -->
  <rect x="20" y="50" width="60" height="100" rx="5" fill="#E63946"/>
  <rect x="35" y="65" width="18" height="25" rx="2" fill="#87CEEB"/>
  <rect x="57" y="65" width="15" height="25" rx="2" fill="#87CEEB"/>
  <circle cx="35" cy="155" r="4" fill="#333"/>
  <circle cx="60" cy="155" r="4" fill="#333"/>
  
  <!-- Auto blu (prima fila) -->
  <rect x="170" y="50" width="60" height="100" rx="5" fill="#1D5FAA"/>
  <rect x="185" y="65" width="18" height="25" rx="2" fill="#87CEEB"/>
  <rect x="207" y="65" width="15" height="25" rx="2" fill="#87CEEB"/>
  <circle cx="185" cy="155" r="4" fill="#333"/>
  <circle cx="210" cy="155" r="4" fill="#333"/>
  
  <!-- Auto verde -->
  <rect x="320" y="50" width="60" height="100" rx="5" fill="#06A77D"/>
  <rect x="335" y="65" width="18" height="25" rx="2" fill="#87CEEB"/>
  <rect x="357" y="65" width="15" height="25" rx="2" fill="#87CEEB"/>
  <circle cx="335" cy="155" r="4" fill="#333"/>
  <circle cx="360" cy="155" r="4" fill="#333"/>
  
  <!-- Auto arancione -->
  <rect x="470" y="50" width="60" height="100" rx="5" fill="#F77F00"/>
  <rect x="485" y="65" width="18" height="25" rx="2" fill="#87CEEB"/>
  <rect x="507" y="65" width="15" height="25" rx="2" fill="#87CEEB"/>
  <circle cx="485" cy="155" r="4" fill="#333"/>
  <circle cx="510" cy="155" r="4" fill="#333"/>
  
  <!-- Auto bianca -->
  <rect x="620" y="50" width="60" height="100" rx="5" fill="#F5F5F5" stroke="#ccc" stroke-width="2"/>
  <rect x="635" y="65" width="18" height="25" rx="2" fill="#87CEEB"/>
  <rect x="657" y="65" width="15" height="25" rx="2" fill="#87CEEB"/>
  <circle cx="635" cy="155" r="4" fill="#333"/>
  <circle cx="660" cy="155" r="4" fill="#333"/>
  
  <!-- Auto grigia -->
  <rect x="770" y="50" width="60" height="100" rx="5" fill="#888888"/>
  <rect x="785" y="65" width="18" height="25" rx="2" fill="#87CEEB"/>
  <rect x="807" y="65" width="15" height="25" rx="2" fill="#87CEEB"/>
  <circle cx="785" cy="155" r="4" fill="#333"/>
  <circle cx="810" cy="155" r="4" fill="#333"/>
  
  <!-- Auto viola -->
  <rect x="920" y="50" width="60" height="100" rx="5" fill="#8B3A8B"/>
  <rect x="935" y="65" width="18" height="25" rx="2" fill="#87CEEB"/>
  <rect x="957" y="65" width="15" height="25" rx="2" fill="#87CEEB"/>
  <circle cx="935" cy="155" r="4" fill="#333"/>
  <circle cx="960" cy="155" r="4" fill="#333"/>
  
  <!-- Auto nera (seconda fila) -->
  <rect x="120" y="250" width="60" height="100" rx="5" fill="#222222"/>
  <rect x="135" y="265" width="18" height="25" rx="2" fill="#87CEEB"/>
  <rect x="157" y="265" width="15" height="25" rx="2" fill="#87CEEB"/>
  <circle cx="135" cy="355" r="4" fill="#555"/>
  <circle cx="160" cy="355" r="4" fill="#555"/>
  
  <!-- Auto rossa (seconda fila) -->
  <rect x="270" y="280" width="60" height="100" rx="5" fill="#DC143C"/>
  <rect x="285" y="295" width="18" height="25" rx="2" fill="#87CEEB"/>
  <rect x="307" y="295" width="15" height="25" rx="2" fill="#87CEEB"/>
  <circle cx="285" cy="385" r="4" fill="#333"/>
  <circle cx="310" cy="385" r="4" fill="#333"/>
  
  <!-- Auto blu (seconda fila) -->
  <rect x="620" y="250" width="60" height="100" rx="5" fill="#0651E8"/>
  <rect x="635" y="265" width="18" height="25" rx="2" fill="#87CEEB"/>
  <rect x="657" y="265" width="15" height="25" rx="2" fill="#87CEEB"/>
  <circle cx="635" cy="355" r="4" fill="#333"/>
  <circle cx="660" cy="355" r="4" fill="#333"/>
  
  <!-- Auto argento (seconda fila) -->
  <rect x="870" y="280" width="60" height="100" rx="5" fill="#D3D3D3" stroke="#aaa" stroke-width="2"/>
  <rect x="885" y="295" width="18" height="25" rx="2" fill="#87CEEB"/>
  <rect x="907" y="295" width="15" height="25" rx="2" fill="#87CEEB"/>
  <circle cx="885" cy="385" r="4" fill="#333"/>
  <circle cx="910" cy="385" r="4" fill="#333"/>
</svg>
